<svg width="94" height="104" viewBox="0 0 94 104" fill="none" xmlns="http://www.w3.org/2000/svg">
<rect x="31.928" y="15.6437" width="30.1443" height="59.5876" rx="15.0722" fill="white"/>
<path d="M31.928 30.7158C31.928 22.3917 38.676 15.6437 47.0001 15.6437C55.3243 15.6437 62.0723 22.3917 62.0723 30.7158V31.9426H31.928V30.7158Z" fill="#C9C9C9"/>
<path d="M63.825 51.2209L71.7115 49.6436V60.5095L63.825 58.2312V51.2209Z" fill="#FFDB00"/>
<path d="M30.175 51.2209L22.2885 49.6436V60.5095L30.175 58.2312V51.2209Z" fill="#FFDB00"/>
<path fill-rule="evenodd" clip-rule="evenodd" d="M26.8453 55.6025V59.2827C26.8453 70.4138 35.8689 79.4374 47 79.4374C58.1128 79.4374 67.1251 70.4434 67.1545 59.3374V55.6025H65.402V59.2827C65.402 69.4459 57.1632 77.6848 47 77.6848C36.8368 77.6848 28.5979 69.4459 28.5979 59.2827V55.6025L26.8453 55.6025Z" fill="#FFDB00"/>
<rect x="43.1443" y="78.0353" width="7.71134" height="21.0309" fill="#FFDB00"/>
<ellipse cx="47" cy="99.1016" rx="12.268" ry="4.41649" fill="#FFDB00"/>
<circle cx="46.9997" cy="49.6436" r="2.62887" fill="#333333"/>
<path fill-rule="evenodd" clip-rule="evenodd" d="M83.3402 36.3172C83.2905 16.2512 67.0085 0 46.9309 0C26.8225 0 10.5215 16.301 10.5215 36.4094V40.5206H15.7822V36.4094C15.7822 19.2064 29.7279 5.26068 46.9309 5.26068C64.1339 5.26068 78.0797 19.2064 78.0797 36.4094V40.5206H83.3402V36.3172Z" fill="white"/>
<path d="M94.0001 50.5302C94.0001 58.4818 86.9342 64.9279 78.218 64.9279C78.218 50.5302 78.218 58.4818 78.218 50.5302C78.218 42.5786 78.218 50.5302 78.218 36.1326C86.9342 36.1326 94.0001 42.5786 94.0001 50.5302Z" fill="white"/>
<path d="M-5.05447e-05 50.5302C-5.05447e-05 42.5786 7.0658 36.1326 15.782 36.1326C15.782 50.5302 15.782 42.5786 15.782 50.5302C15.782 58.4818 15.782 50.5302 15.782 64.9279C7.0658 64.9279 -5.05447e-05 58.4818 -5.05447e-05 50.5302Z" fill="white"/>
<rect x="16.8892" y="36.1326" width="2.07658" height="28.7953" rx="0.969072" fill="white"/>
<rect x="75.0339" y="36.1326" width="2.07658" height="28.7953" rx="0.969072" fill="white"/>
</svg>
