<svg width="415" height="426" viewBox="0 0 415 426" fill="none" xmlns="http://www.w3.org/2000/svg">
<path fill-rule="evenodd" clip-rule="evenodd" d="M184.808 2.96847C235.282 18.8049 230.053 95.6389 264.83 135.502C287.75 161.773 327.929 164.865 349.761 192.047C380.229 229.98 425.528 272.764 412.798 319.722C400.182 366.259 338.193 376.346 294.356 396.424C259.251 412.502 223.064 429.372 184.808 424.144C149.176 419.275 125.153 388.859 95.0465 369.189C62.7792 348.108 14.5253 341.498 2.33777 304.932C-9.84712 268.374 29.1359 235.441 37.9653 197.932C48.0622 155.038 31.019 105.661 57.5302 70.4614C87.146 31.1404 137.839 -11.768 184.808 2.96847Z" fill="#FF5B00"/>
</svg>
