<svg width="598" height="612" viewBox="0 0 598 612" fill="none" xmlns="http://www.w3.org/2000/svg">
<path fill-rule="evenodd" clip-rule="evenodd" d="M266.021 4.27297C338.677 27.0687 331.15 137.667 381.21 195.048C414.201 232.865 472.037 237.315 503.464 276.442C547.32 331.044 612.526 392.629 594.201 460.224C576.041 527.211 486.811 541.731 423.71 570.632C373.178 593.776 321.089 618.059 266.021 610.534C214.731 603.526 180.152 559.743 136.815 531.429C90.3674 501.084 20.9085 491.568 3.3651 438.934C-14.1744 386.311 41.9396 338.906 54.6492 284.913C69.1831 223.169 44.6503 152.093 82.8118 101.426C125.442 44.8249 198.412 -16.9395 266.021 4.27297Z" fill="#FF5B00"/>
</svg>
